<?xml version="1.0" encoding="utf-8" standalone="no"?>
<!DOCTYPE svg PUBLIC "-//W3C//DTD SVG 1.1//EN"
  "http://www.w3.org/Graphics/SVG/1.1/DTD/svg11.dtd">
<svg height="432pt" version="1.1" viewBox="0 0 864 432" width="864pt" xmlns="http://www.w3.org/2000/svg" xmlns:xlink="http://www.w3.org/1999/xlink">
 <metadata>
  <rdf:RDF xmlns:cc="http://creativecommons.org/ns#" xmlns:dc="http://purl.org/dc/elements/1.1/" xmlns:rdf="http://www.w3.org/1999/02/22-rdf-syntax-ns#">
   <cc:Work>
    <dc:type rdf:resource="http://purl.org/dc/dcmitype/StillImage"/>
    <dc:date>2021-06-21T20:12:11.801024</dc:date>
    <dc:format>image/svg+xml</dc:format>
    <dc:creator>
     <cc:Agent>
      <dc:title>Matplotlib v3.4.2, https://matplotlib.org/</dc:title>
     </cc:Agent>
    </dc:creator>
   </cc:Work>
  </rdf:RDF>
 </metadata>
 <defs>
  <style type="text/css">*{stroke-linecap:butt;stroke-linejoin:round;}</style>
 </defs>
 <g id="figure_1">
  <g id="patch_1">
   <path d="M 0 432 
L 864 432 
L 864 0 
L 0 0 
z
" style="fill:none;"/>
  </g>
  <g id="axes_1">
   <g id="patch_2">
    <path d="M 108 378 
L 777.6 378 
L 777.6 51.84 
L 108 51.84 
z
" style="fill:#ffffff;"/>
   </g>
   <g id="matplotlib.axis_1">
    <g id="xtick_1">
     <g id="line2d_1">
      <defs>
       <path d="M 0 0 
L 0 3.5 
" id="m8fb544d10f" style="stroke:#000000;stroke-width:0.8;"/>
      </defs>
      <g>
       <use style="stroke:#000000;stroke-width:0.8;" x="138.331254" xlink:href="#m8fb544d10f" y="378"/>
      </g>
     </g>
     <g id="text_1">
      <!-- 0.0 -->
      <g transform="translate(130.379692 392.598437)scale(0.1 -0.1)">
       <defs>
        <path d="M 2034 4250 
Q 1547 4250 1301 3770 
Q 1056 3291 1056 2328 
Q 1056 1369 1301 889 
Q 1547 409 2034 409 
Q 2525 409 2770 889 
Q 3016 1369 3016 2328 
Q 3016 3291 2770 3770 
Q 2525 4250 2034 4250 
z
M 2034 4750 
Q 2819 4750 3233 4129 
Q 3647 3509 3647 2328 
Q 3647 1150 3233 529 
Q 2819 -91 2034 -91 
Q 1250 -91 836 529 
Q 422 1150 422 2328 
Q 422 3509 836 4129 
Q 1250 4750 2034 4750 
z
" id="DejaVuSans-30" transform="scale(0.015625)"/>
        <path d="M 684 794 
L 1344 794 
L 1344 0 
L 684 0 
L 684 794 
z
" id="DejaVuSans-2e" transform="scale(0.015625)"/>
       </defs>
       <use xlink:href="#DejaVuSans-30"/>
       <use x="63.623047" xlink:href="#DejaVuSans-2e"/>
       <use x="95.410156" xlink:href="#DejaVuSans-30"/>
      </g>
     </g>
    </g>
    <g id="xtick_2">
     <g id="line2d_2">
      <g>
       <use style="stroke:#000000;stroke-width:0.8;" x="239.44681" xlink:href="#m8fb544d10f" y="378"/>
      </g>
     </g>
     <g id="text_2">
      <!-- 0.2 -->
      <g transform="translate(231.495247 392.598437)scale(0.1 -0.1)">
       <defs>
        <path d="M 1228 531 
L 3431 531 
L 3431 0 
L 469 0 
L 469 531 
Q 828 903 1448 1529 
Q 2069 2156 2228 2338 
Q 2531 2678 2651 2914 
Q 2772 3150 2772 3378 
Q 2772 3750 2511 3984 
Q 2250 4219 1831 4219 
Q 1534 4219 1204 4116 
Q 875 4013 500 3803 
L 500 4441 
Q 881 4594 1212 4672 
Q 1544 4750 1819 4750 
Q 2544 4750 2975 4387 
Q 3406 4025 3406 3419 
Q 3406 3131 3298 2873 
Q 3191 2616 2906 2266 
Q 2828 2175 2409 1742 
Q 1991 1309 1228 531 
z
" id="DejaVuSans-32" transform="scale(0.015625)"/>
       </defs>
       <use xlink:href="#DejaVuSans-30"/>
       <use x="63.623047" xlink:href="#DejaVuSans-2e"/>
       <use x="95.410156" xlink:href="#DejaVuSans-32"/>
      </g>
     </g>
    </g>
    <g id="xtick_3">
     <g id="line2d_3">
      <g>
       <use style="stroke:#000000;stroke-width:0.8;" x="340.562365" xlink:href="#m8fb544d10f" y="378"/>
      </g>
     </g>
     <g id="text_3">
      <!-- 0.4 -->
      <g transform="translate(332.610803 392.598437)scale(0.1 -0.1)">
       <defs>
        <path d="M 2419 4116 
L 825 1625 
L 2419 1625 
L 2419 4116 
z
M 2253 4666 
L 3047 4666 
L 3047 1625 
L 3713 1625 
L 3713 1100 
L 3047 1100 
L 3047 0 
L 2419 0 
L 2419 1100 
L 313 1100 
L 313 1709 
L 2253 4666 
z
" id="DejaVuSans-34" transform="scale(0.015625)"/>
       </defs>
       <use xlink:href="#DejaVuSans-30"/>
       <use x="63.623047" xlink:href="#DejaVuSans-2e"/>
       <use x="95.410156" xlink:href="#DejaVuSans-34"/>
      </g>
     </g>
    </g>
    <g id="xtick_4">
     <g id="line2d_4">
      <g>
       <use style="stroke:#000000;stroke-width:0.8;" x="441.677921" xlink:href="#m8fb544d10f" y="378"/>
      </g>
     </g>
     <g id="text_4">
      <!-- 0.6 -->
      <g transform="translate(433.726358 392.598437)scale(0.1 -0.1)">
       <defs>
        <path d="M 2113 2584 
Q 1688 2584 1439 2293 
Q 1191 2003 1191 1497 
Q 1191 994 1439 701 
Q 1688 409 2113 409 
Q 2538 409 2786 701 
Q 3034 994 3034 1497 
Q 3034 2003 2786 2293 
Q 2538 2584 2113 2584 
z
M 3366 4563 
L 3366 3988 
Q 3128 4100 2886 4159 
Q 2644 4219 2406 4219 
Q 1781 4219 1451 3797 
Q 1122 3375 1075 2522 
Q 1259 2794 1537 2939 
Q 1816 3084 2150 3084 
Q 2853 3084 3261 2657 
Q 3669 2231 3669 1497 
Q 3669 778 3244 343 
Q 2819 -91 2113 -91 
Q 1303 -91 875 529 
Q 447 1150 447 2328 
Q 447 3434 972 4092 
Q 1497 4750 2381 4750 
Q 2619 4750 2861 4703 
Q 3103 4656 3366 4563 
z
" id="DejaVuSans-36" transform="scale(0.015625)"/>
       </defs>
       <use xlink:href="#DejaVuSans-30"/>
       <use x="63.623047" xlink:href="#DejaVuSans-2e"/>
       <use x="95.410156" xlink:href="#DejaVuSans-36"/>
      </g>
     </g>
    </g>
    <g id="xtick_5">
     <g id="line2d_5">
      <g>
       <use style="stroke:#000000;stroke-width:0.8;" x="542.793476" xlink:href="#m8fb544d10f" y="378"/>
      </g>
     </g>
     <g id="text_5">
      <!-- 0.8 -->
      <g transform="translate(534.841914 392.598437)scale(0.1 -0.1)">
       <defs>
        <path d="M 2034 2216 
Q 1584 2216 1326 1975 
Q 1069 1734 1069 1313 
Q 1069 891 1326 650 
Q 1584 409 2034 409 
Q 2484 409 2743 651 
Q 3003 894 3003 1313 
Q 3003 1734 2745 1975 
Q 2488 2216 2034 2216 
z
M 1403 2484 
Q 997 2584 770 2862 
Q 544 3141 544 3541 
Q 544 4100 942 4425 
Q 1341 4750 2034 4750 
Q 2731 4750 3128 4425 
Q 3525 4100 3525 3541 
Q 3525 3141 3298 2862 
Q 3072 2584 2669 2484 
Q 3125 2378 3379 2068 
Q 3634 1759 3634 1313 
Q 3634 634 3220 271 
Q 2806 -91 2034 -91 
Q 1263 -91 848 271 
Q 434 634 434 1313 
Q 434 1759 690 2068 
Q 947 2378 1403 2484 
z
M 1172 3481 
Q 1172 3119 1398 2916 
Q 1625 2713 2034 2713 
Q 2441 2713 2670 2916 
Q 2900 3119 2900 3481 
Q 2900 3844 2670 4047 
Q 2441 4250 2034 4250 
Q 1625 4250 1398 4047 
Q 1172 3844 1172 3481 
z
" id="DejaVuSans-38" transform="scale(0.015625)"/>
       </defs>
       <use xlink:href="#DejaVuSans-30"/>
       <use x="63.623047" xlink:href="#DejaVuSans-2e"/>
       <use x="95.410156" xlink:href="#DejaVuSans-38"/>
      </g>
     </g>
    </g>
    <g id="xtick_6">
     <g id="line2d_6">
      <g>
       <use style="stroke:#000000;stroke-width:0.8;" x="643.909032" xlink:href="#m8fb544d10f" y="378"/>
      </g>
     </g>
     <g id="text_6">
      <!-- 1.0 -->
      <g transform="translate(635.957469 392.598437)scale(0.1 -0.1)">
       <defs>
        <path d="M 794 531 
L 1825 531 
L 1825 4091 
L 703 3866 
L 703 4441 
L 1819 4666 
L 2450 4666 
L 2450 531 
L 3481 531 
L 3481 0 
L 794 0 
L 794 531 
z
" id="DejaVuSans-31" transform="scale(0.015625)"/>
       </defs>
       <use xlink:href="#DejaVuSans-31"/>
       <use x="63.623047" xlink:href="#DejaVuSans-2e"/>
       <use x="95.410156" xlink:href="#DejaVuSans-30"/>
      </g>
     </g>
    </g>
    <g id="xtick_7">
     <g id="line2d_7">
      <g>
       <use style="stroke:#000000;stroke-width:0.8;" x="745.024587" xlink:href="#m8fb544d10f" y="378"/>
      </g>
     </g>
     <g id="text_7">
      <!-- 1.2 -->
      <g transform="translate(737.073025 392.598437)scale(0.1 -0.1)">
       <use xlink:href="#DejaVuSans-31"/>
       <use x="63.623047" xlink:href="#DejaVuSans-2e"/>
       <use x="95.410156" xlink:href="#DejaVuSans-32"/>
      </g>
     </g>
    </g>
    <g id="text_8">
     <!-- samples -->
     <g transform="translate(422.016406 406.276563)scale(0.1 -0.1)">
      <defs>
       <path d="M 2834 3397 
L 2834 2853 
Q 2591 2978 2328 3040 
Q 2066 3103 1784 3103 
Q 1356 3103 1142 2972 
Q 928 2841 928 2578 
Q 928 2378 1081 2264 
Q 1234 2150 1697 2047 
L 1894 2003 
Q 2506 1872 2764 1633 
Q 3022 1394 3022 966 
Q 3022 478 2636 193 
Q 2250 -91 1575 -91 
Q 1294 -91 989 -36 
Q 684 19 347 128 
L 347 722 
Q 666 556 975 473 
Q 1284 391 1588 391 
Q 1994 391 2212 530 
Q 2431 669 2431 922 
Q 2431 1156 2273 1281 
Q 2116 1406 1581 1522 
L 1381 1569 
Q 847 1681 609 1914 
Q 372 2147 372 2553 
Q 372 3047 722 3315 
Q 1072 3584 1716 3584 
Q 2034 3584 2315 3537 
Q 2597 3491 2834 3397 
z
" id="DejaVuSans-73" transform="scale(0.015625)"/>
       <path d="M 2194 1759 
Q 1497 1759 1228 1600 
Q 959 1441 959 1056 
Q 959 750 1161 570 
Q 1363 391 1709 391 
Q 2188 391 2477 730 
Q 2766 1069 2766 1631 
L 2766 1759 
L 2194 1759 
z
M 3341 1997 
L 3341 0 
L 2766 0 
L 2766 531 
Q 2569 213 2275 61 
Q 1981 -91 1556 -91 
Q 1019 -91 701 211 
Q 384 513 384 1019 
Q 384 1609 779 1909 
Q 1175 2209 1959 2209 
L 2766 2209 
L 2766 2266 
Q 2766 2663 2505 2880 
Q 2244 3097 1772 3097 
Q 1472 3097 1187 3025 
Q 903 2953 641 2809 
L 641 3341 
Q 956 3463 1253 3523 
Q 1550 3584 1831 3584 
Q 2591 3584 2966 3190 
Q 3341 2797 3341 1997 
z
" id="DejaVuSans-61" transform="scale(0.015625)"/>
       <path d="M 3328 2828 
Q 3544 3216 3844 3400 
Q 4144 3584 4550 3584 
Q 5097 3584 5394 3201 
Q 5691 2819 5691 2113 
L 5691 0 
L 5113 0 
L 5113 2094 
Q 5113 2597 4934 2840 
Q 4756 3084 4391 3084 
Q 3944 3084 3684 2787 
Q 3425 2491 3425 1978 
L 3425 0 
L 2847 0 
L 2847 2094 
Q 2847 2600 2669 2842 
Q 2491 3084 2119 3084 
Q 1678 3084 1418 2786 
Q 1159 2488 1159 1978 
L 1159 0 
L 581 0 
L 581 3500 
L 1159 3500 
L 1159 2956 
Q 1356 3278 1631 3431 
Q 1906 3584 2284 3584 
Q 2666 3584 2933 3390 
Q 3200 3197 3328 2828 
z
" id="DejaVuSans-6d" transform="scale(0.015625)"/>
       <path d="M 1159 525 
L 1159 -1331 
L 581 -1331 
L 581 3500 
L 1159 3500 
L 1159 2969 
Q 1341 3281 1617 3432 
Q 1894 3584 2278 3584 
Q 2916 3584 3314 3078 
Q 3713 2572 3713 1747 
Q 3713 922 3314 415 
Q 2916 -91 2278 -91 
Q 1894 -91 1617 61 
Q 1341 213 1159 525 
z
M 3116 1747 
Q 3116 2381 2855 2742 
Q 2594 3103 2138 3103 
Q 1681 3103 1420 2742 
Q 1159 2381 1159 1747 
Q 1159 1113 1420 752 
Q 1681 391 2138 391 
Q 2594 391 2855 752 
Q 3116 1113 3116 1747 
z
" id="DejaVuSans-70" transform="scale(0.015625)"/>
       <path d="M 603 4863 
L 1178 4863 
L 1178 0 
L 603 0 
L 603 4863 
z
" id="DejaVuSans-6c" transform="scale(0.015625)"/>
       <path d="M 3597 1894 
L 3597 1613 
L 953 1613 
Q 991 1019 1311 708 
Q 1631 397 2203 397 
Q 2534 397 2845 478 
Q 3156 559 3463 722 
L 3463 178 
Q 3153 47 2828 -22 
Q 2503 -91 2169 -91 
Q 1331 -91 842 396 
Q 353 884 353 1716 
Q 353 2575 817 3079 
Q 1281 3584 2069 3584 
Q 2775 3584 3186 3129 
Q 3597 2675 3597 1894 
z
M 3022 2063 
Q 3016 2534 2758 2815 
Q 2500 3097 2075 3097 
Q 1594 3097 1305 2825 
Q 1016 2553 972 2059 
L 3022 2063 
z
" id="DejaVuSans-65" transform="scale(0.015625)"/>
      </defs>
      <use xlink:href="#DejaVuSans-73"/>
      <use x="52.099609" xlink:href="#DejaVuSans-61"/>
      <use x="113.378906" xlink:href="#DejaVuSans-6d"/>
      <use x="210.791016" xlink:href="#DejaVuSans-70"/>
      <use x="274.267578" xlink:href="#DejaVuSans-6c"/>
      <use x="302.050781" xlink:href="#DejaVuSans-65"/>
      <use x="363.574219" xlink:href="#DejaVuSans-73"/>
     </g>
    </g>
    <g id="text_9">
     <!-- 1e7 -->
     <g transform="translate(758.721875 405.276563)scale(0.1 -0.1)">
      <defs>
       <path d="M 525 4666 
L 3525 4666 
L 3525 4397 
L 1831 0 
L 1172 0 
L 2766 4134 
L 525 4134 
L 525 4666 
z
" id="DejaVuSans-37" transform="scale(0.015625)"/>
      </defs>
      <use xlink:href="#DejaVuSans-31"/>
      <use x="63.623047" xlink:href="#DejaVuSans-65"/>
      <use x="125.146484" xlink:href="#DejaVuSans-37"/>
     </g>
    </g>
   </g>
   <g id="matplotlib.axis_2">
    <g id="ytick_1">
     <g id="line2d_8">
      <defs>
       <path d="M 0 0 
L -3.5 0 
" id="m5c0278ab24" style="stroke:#000000;stroke-width:0.8;"/>
      </defs>
      <g>
       <use style="stroke:#000000;stroke-width:0.8;" x="108" xlink:href="#m5c0278ab24" y="336.928268"/>
      </g>
     </g>
     <g id="text_10">
      <!-- −600 -->
      <g transform="translate(73.532813 340.727487)scale(0.1 -0.1)">
       <defs>
        <path d="M 678 2272 
L 4684 2272 
L 4684 1741 
L 678 1741 
L 678 2272 
z
" id="DejaVuSans-2212" transform="scale(0.015625)"/>
       </defs>
       <use xlink:href="#DejaVuSans-2212"/>
       <use x="83.789062" xlink:href="#DejaVuSans-36"/>
       <use x="147.412109" xlink:href="#DejaVuSans-30"/>
       <use x="211.035156" xlink:href="#DejaVuSans-30"/>
      </g>
     </g>
    </g>
    <g id="ytick_2">
     <g id="line2d_9">
      <g>
       <use style="stroke:#000000;stroke-width:0.8;" x="108" xlink:href="#m5c0278ab24" y="276.386461"/>
      </g>
     </g>
     <g id="text_11">
      <!-- −400 -->
      <g transform="translate(73.532813 280.18568)scale(0.1 -0.1)">
       <use xlink:href="#DejaVuSans-2212"/>
       <use x="83.789062" xlink:href="#DejaVuSans-34"/>
       <use x="147.412109" xlink:href="#DejaVuSans-30"/>
       <use x="211.035156" xlink:href="#DejaVuSans-30"/>
      </g>
     </g>
    </g>
    <g id="ytick_3">
     <g id="line2d_10">
      <g>
       <use style="stroke:#000000;stroke-width:0.8;" x="108" xlink:href="#m5c0278ab24" y="215.844654"/>
      </g>
     </g>
     <g id="text_12">
      <!-- −200 -->
      <g transform="translate(73.532813 219.643872)scale(0.1 -0.1)">
       <use xlink:href="#DejaVuSans-2212"/>
       <use x="83.789062" xlink:href="#DejaVuSans-32"/>
       <use x="147.412109" xlink:href="#DejaVuSans-30"/>
       <use x="211.035156" xlink:href="#DejaVuSans-30"/>
      </g>
     </g>
    </g>
    <g id="ytick_4">
     <g id="line2d_11">
      <g>
       <use style="stroke:#000000;stroke-width:0.8;" x="108" xlink:href="#m5c0278ab24" y="155.302846"/>
      </g>
     </g>
     <g id="text_13">
      <!-- 0 -->
      <g transform="translate(94.6375 159.102065)scale(0.1 -0.1)">
       <use xlink:href="#DejaVuSans-30"/>
      </g>
     </g>
    </g>
    <g id="ytick_5">
     <g id="line2d_12">
      <g>
       <use style="stroke:#000000;stroke-width:0.8;" x="108" xlink:href="#m5c0278ab24" y="94.761039"/>
      </g>
     </g>
     <g id="text_14">
      <!-- 200 -->
      <g transform="translate(81.9125 98.560258)scale(0.1 -0.1)">
       <use xlink:href="#DejaVuSans-32"/>
       <use x="63.623047" xlink:href="#DejaVuSans-30"/>
       <use x="127.246094" xlink:href="#DejaVuSans-30"/>
      </g>
     </g>
    </g>
    <g id="text_15">
     <!-- Test Return -->
     <g transform="translate(67.453125 242.945781)rotate(-90)scale(0.1 -0.1)">
      <defs>
       <path d="M -19 4666 
L 3928 4666 
L 3928 4134 
L 2272 4134 
L 2272 0 
L 1638 0 
L 1638 4134 
L -19 4134 
L -19 4666 
z
" id="DejaVuSans-54" transform="scale(0.015625)"/>
       <path d="M 1172 4494 
L 1172 3500 
L 2356 3500 
L 2356 3053 
L 1172 3053 
L 1172 1153 
Q 1172 725 1289 603 
Q 1406 481 1766 481 
L 2356 481 
L 2356 0 
L 1766 0 
Q 1100 0 847 248 
Q 594 497 594 1153 
L 594 3053 
L 172 3053 
L 172 3500 
L 594 3500 
L 594 4494 
L 1172 4494 
z
" id="DejaVuSans-74" transform="scale(0.015625)"/>
       <path id="DejaVuSans-20" transform="scale(0.015625)"/>
       <path d="M 2841 2188 
Q 3044 2119 3236 1894 
Q 3428 1669 3622 1275 
L 4263 0 
L 3584 0 
L 2988 1197 
Q 2756 1666 2539 1819 
Q 2322 1972 1947 1972 
L 1259 1972 
L 1259 0 
L 628 0 
L 628 4666 
L 2053 4666 
Q 2853 4666 3247 4331 
Q 3641 3997 3641 3322 
Q 3641 2881 3436 2590 
Q 3231 2300 2841 2188 
z
M 1259 4147 
L 1259 2491 
L 2053 2491 
Q 2509 2491 2742 2702 
Q 2975 2913 2975 3322 
Q 2975 3731 2742 3939 
Q 2509 4147 2053 4147 
L 1259 4147 
z
" id="DejaVuSans-52" transform="scale(0.015625)"/>
       <path d="M 544 1381 
L 544 3500 
L 1119 3500 
L 1119 1403 
Q 1119 906 1312 657 
Q 1506 409 1894 409 
Q 2359 409 2629 706 
Q 2900 1003 2900 1516 
L 2900 3500 
L 3475 3500 
L 3475 0 
L 2900 0 
L 2900 538 
Q 2691 219 2414 64 
Q 2138 -91 1772 -91 
Q 1169 -91 856 284 
Q 544 659 544 1381 
z
M 1991 3584 
L 1991 3584 
z
" id="DejaVuSans-75" transform="scale(0.015625)"/>
       <path d="M 2631 2963 
Q 2534 3019 2420 3045 
Q 2306 3072 2169 3072 
Q 1681 3072 1420 2755 
Q 1159 2438 1159 1844 
L 1159 0 
L 581 0 
L 581 3500 
L 1159 3500 
L 1159 2956 
Q 1341 3275 1631 3429 
Q 1922 3584 2338 3584 
Q 2397 3584 2469 3576 
Q 2541 3569 2628 3553 
L 2631 2963 
z
" id="DejaVuSans-72" transform="scale(0.015625)"/>
       <path d="M 3513 2113 
L 3513 0 
L 2938 0 
L 2938 2094 
Q 2938 2591 2744 2837 
Q 2550 3084 2163 3084 
Q 1697 3084 1428 2787 
Q 1159 2491 1159 1978 
L 1159 0 
L 581 0 
L 581 3500 
L 1159 3500 
L 1159 2956 
Q 1366 3272 1645 3428 
Q 1925 3584 2291 3584 
Q 2894 3584 3203 3211 
Q 3513 2838 3513 2113 
z
" id="DejaVuSans-6e" transform="scale(0.015625)"/>
      </defs>
      <use xlink:href="#DejaVuSans-54"/>
      <use x="44.083984" xlink:href="#DejaVuSans-65"/>
      <use x="105.607422" xlink:href="#DejaVuSans-73"/>
      <use x="157.707031" xlink:href="#DejaVuSans-74"/>
      <use x="196.916016" xlink:href="#DejaVuSans-20"/>
      <use x="228.703125" xlink:href="#DejaVuSans-52"/>
      <use x="293.685547" xlink:href="#DejaVuSans-65"/>
      <use x="355.208984" xlink:href="#DejaVuSans-74"/>
      <use x="394.417969" xlink:href="#DejaVuSans-75"/>
      <use x="457.796875" xlink:href="#DejaVuSans-72"/>
      <use x="497.160156" xlink:href="#DejaVuSans-6e"/>
     </g>
    </g>
   </g>
   <g id="line2d_13">
    <path clip-path="url(#p9d4cbfcb6a)" d="M 138.437931 292.515987 
L 143.804437 226.374627 
L 149.952566 166.504883 
L 156.805723 107.479149 
L 164.335647 73.677485 
L 171.926897 75.034373 
L 179.134313 73.422577 
L 185.698785 73.05426 
L 192.436418 71.638308 
L 199.248017 72.927909 
L 206.115533 72.853548 
L 212.643098 73.375307 
L 219.266319 78.279438 
L 225.652979 74.254481 
L 232.037163 74.398941 
L 238.498194 74.716591 
L 245.088148 74.036035 
L 251.605803 76.584042 
L 257.90323 74.415089 
L 264.129824 72.546286 
L 270.401871 71.971042 
L 276.675383 72.341269 
L 282.971444 73.574565 
L 289.277718 75.428806 
L 295.586166 70.473222 
L 301.671098 72.288243 
L 307.880149 73.619432 
L 314.229347 73.849061 
L 320.608373 73.622525 
L 326.731173 72.267789 
L 332.81388 75.660376 
L 338.98653 73.612219 
L 345.013371 76.869399 
L 350.852339 74.527543 
L 356.54474 75.748406 
L 362.058016 71.786785 
L 367.654863 72.210776 
L 373.158987 74.856351 
L 378.84072 76.076708 
L 384.373662 72.784504 
L 389.909537 70.955482 
L 395.508659 73.049904 
L 400.972742 76.247015 
L 406.609934 73.732822 
L 412.150409 77.959068 
L 417.692502 71.440464 
L 423.214473 72.858653 
L 428.821634 73.297836 
L 434.369339 69.153391 
L 439.841055 74.376268 
L 445.408478 75.136548 
L 450.968822 70.85062 
L 456.567793 73.311563 
L 462.117925 73.248919 
L 467.675539 70.207556 
L 473.138307 70.982203 
L 478.687326 71.27358 
L 484.235688 72.380488 
L 489.792039 72.393397 
L 495.351423 69.2663 
L 500.858277 71.096968 
L 506.317961 69.353522 
L 511.793166 71.962633 
L 517.295571 71.567945 
L 522.728611 71.931918 
L 528.20867 69.414275 
L 533.730742 69.5039 
L 539.185016 70.130155 
L 544.678472 73.315477 
L 550.17026 71.602833 
L 555.676913 70.471576 
L 561.202979 73.680254 
L 566.702957 70.336639 
L 572.152074 71.5298 
L 577.702307 69.424771 
L 583.248091 69.896355 
L 588.726633 72.08565 
L 594.161645 69.782692 
L 599.68579 69.553564 
L 605.247246 74.056856 
L 610.72599 75.067775 
L 616.26773 71.687421 
L 621.732216 69.263936 
L 627.219808 71.471354 
L 632.75816 75.691483 
L 638.248532 70.935457 
L 643.798462 70.756536 
L 649.324174 70.975331 
L 654.856257 68.870085 
L 660.43278 69.956837 
L 665.924214 73.412931 
L 671.33875 71.762388 
L 676.824269 72.143246 
L 682.29644 69.247293 
L 687.775842 70.860687 
L 693.230166 70.161605 
L 698.776456 72.071987 
L 704.248728 70.990976 
L 709.725754 71.551705 
L 715.28994 69.036079 
" style="fill:none;stroke:#1f77b4;stroke-linecap:square;stroke-width:1.5;"/>
   </g>
   <g id="line2d_14">
    <path clip-path="url(#p9d4cbfcb6a)" d="M 138.436364 294.752128 
L 143.849585 205.134574 
L 149.92572 118.08202 
L 156.8489 87.698467 
L 163.971176 77.121944 
L 170.532868 79.494218 
L 176.796319 77.959669 
L 182.549845 72.677203 
L 188.099977 73.207816 
L 193.570682 74.690519 
L 199.06333 70.949218 
L 204.537574 71.898394 
L 210.122186 72.140186 
L 215.531616 70.07714 
L 221.016578 70.463324 
L 226.427828 70.877529 
L 231.92634 70.49434 
L 237.447199 68.07603 
L 242.933375 70.975554 
L 248.458481 70.689652 
L 253.922715 70.131849 
L 259.388061 69.230884 
L 264.840363 69.986622 
L 270.408393 68.961875 
L 275.928493 68.673129 
L 281.366538 75.552028 
L 286.904941 70.590341 
L 292.378983 67.486844 
L 297.858435 71.329805 
L 303.351942 69.034225 
L 308.84555 68.66563 
L 314.335113 70.17061 
L 319.764058 69.852927 
L 325.252358 73.368626 
L 330.710525 68.100424 
L 336.203425 71.666365 
L 341.712453 69.270436 
L 347.299189 71.063344 
L 352.857562 69.015935 
L 358.413508 70.009138 
L 363.929058 71.695219 
L 369.362199 69.932827 
L 374.829517 69.258324 
L 380.330961 68.799624 
L 385.806318 68.541677 
L 391.377937 70.947617 
L 396.872506 71.527023 
L 402.372686 70.753677 
L 407.813209 69.704839 
L 413.296756 70.987153 
L 418.777927 69.687015 
L 424.291758 69.315865 
L 429.781069 71.066915 
L 435.212137 76.188149 
L 440.761612 70.920614 
L 446.258304 72.500269 
L 451.687501 70.153712 
L 457.132827 71.649695 
L 462.699339 71.075572 
L 468.188448 73.03851 
L 473.813354 69.373455 
L 479.312322 69.912678 
L 484.856791 71.335076 
L 490.347113 72.448387 
L 495.836171 76.391279 
L 501.338272 70.713981 
L 506.801192 73.166683 
L 512.344701 71.77592 
L 517.792857 70.544635 
L 523.280904 67.079334 
L 528.78432 71.379562 
L 534.41671 70.26477 
L 539.876545 71.542724 
L 545.475617 69.29925 
L 550.931408 72.526403 
L 556.361414 70.494159 
L 561.807498 68.443616 
L 567.248678 67.98719 
L 572.744157 68.951009 
L 578.178309 68.923475 
L 583.699218 69.986739 
L 589.197882 68.546127 
L 594.645129 70.021036 
L 600.171903 69.780568 
L 605.576175 68.410011 
L 611.002289 71.00292 
L 616.469607 67.620801 
L 621.928381 69.931259 
L 627.344888 71.010962 
L 632.776411 68.905924 
L 638.301517 68.738586 
L 643.811455 67.916653 
L 649.284385 68.479064 
L 654.775112 68.161136 
L 660.21796 70.664696 
L 665.740032 68.583269 
L 671.198907 70.683334 
L 676.641806 71.814937 
L 682.154828 71.211248 
L 687.629072 72.116483 
" style="fill:none;stroke:#ff7f0e;stroke-linecap:square;stroke-width:1.5;"/>
   </g>
   <g id="line2d_15">
    <path clip-path="url(#p9d4cbfcb6a)" d="M 138.440459 363.174545 
L 143.924461 194.294206 
L 150.499753 131.62744 
L 157.875981 113.423011 
L 165.260905 103.652295 
L 172.60422 96.917388 
L 179.762948 101.64903 
L 186.709587 102.254792 
L 193.966145 92.86404 
L 201.102072 99.573907 
L 208.211911 92.989326 
L 215.416799 91.97832 
L 222.318188 92.437559 
L 229.060624 84.314706 
L 236.202163 80.668224 
L 242.93024 85.74352 
L 249.674951 83.980406 
L 256.203781 81.946562 
L 262.631393 78.572266 
L 269.039389 78.816351 
L 275.448093 86.8888 
L 281.994314 78.80763 
L 288.72224 78.103631 
L 295.054602 74.961924 
L 301.330692 77.71362 
L 307.96726 78.057233 
L 314.461862 78.335806 
L 320.69508 76.228556 
L 327.128304 72.765665 
L 333.539839 77.021975 
L 339.804504 75.257568 
L 346.13727 76.46984 
L 352.267097 75.842744 
L 358.414064 75.487732 
L 364.61452 73.970431 
L 370.806988 81.99424 
L 377.154922 77.013625 
L 383.364175 83.067514 
L 389.638749 81.262608 
L 396.016613 82.944077 
L 402.332796 76.876074 
L 408.397707 77.644416 
L 414.684567 77.89161 
L 420.905954 81.708037 
L 426.907415 80.235691 
L 432.671609 75.235546 
L 438.292471 70.980623 
L 443.924658 79.056833 
L 449.559676 73.720296 
L 455.197323 73.348315 
L 460.761004 76.334314 
L 466.366699 73.869309 
L 472.074773 75.80169 
L 477.760248 74.56826 
L 483.282523 74.946816 
L 488.973458 78.533103 
L 494.57349 71.541123 
L 500.219732 80.242416 
L 505.731541 72.872248 
L 511.297396 73.6863 
L 516.828872 76.425349 
L 522.313633 73.796721 
L 527.811184 77.871747 
L 533.379517 74.897413 
L 538.924694 72.323145 
L 544.493583 72.499403 
L 550.12946 73.578198 
L 555.592683 73.531354 
L 561.076332 72.794502 
L 566.561547 70.731826 
L 572.07285 73.329186 
L 577.576924 71.731426 
L 583.120129 76.952246 
L 588.728807 74.555725 
L 594.22378 74.915537 
L 599.795652 71.434229 
L 605.39619 74.050189 
L 610.904106 72.9535 
L 616.460203 75.765423 
L 621.931819 76.451337 
L 627.533519 74.220976 
L 633.137495 70.113182 
L 638.621143 68.988719 
L 644.110505 73.880125 
L 649.670596 69.637136 
L 655.230283 69.922622 
L 660.665699 68.641348 
L 666.217651 72.789186 
L 671.78563 69.174373 
L 677.231663 67.883855 
L 682.793777 69.196753 
L 688.29421 69.670948 
L 693.755259 68.150415 
L 699.251901 70.459542 
L 704.708653 73.114147 
L 710.304792 69.423717 
L 715.775497 69.51177 
L 721.264454 68.56303 
L 726.685663 70.296138 
L 732.117591 68.307974 
" style="fill:none;stroke:#2ca02c;stroke-linecap:square;stroke-width:1.5;"/>
   </g>
   <g id="line2d_16">
    <path clip-path="url(#p9d4cbfcb6a)" d="M 138.437223 362.98082 
L 143.946049 174.808958 
L 150.552232 123.848111 
L 157.691091 110.561729 
L 164.879497 104.672368 
L 171.912792 103.74303 
L 178.836578 103.836957 
L 185.400343 106.653889 
L 192.125488 100.208138 
L 199.053319 98.392201 
L 205.614455 98.778309 
L 212.28252 95.793102 
L 218.808366 97.848284 
L 225.121415 100.390931 
L 231.722087 88.507393 
L 238.121791 94.251985 
L 244.498239 99.932411 
L 250.828427 90.333843 
L 257.282582 94.126611 
L 263.643408 99.584701 
L 270.026075 95.915755 
L 276.145184 98.329585 
L 282.379413 99.44107 
L 288.665666 92.757329 
L 294.827193 91.377713 
L 300.868898 87.650751 
L 307.00368 88.656089 
L 313.290236 99.516551 
L 319.559906 94.402068 
L 325.82811 92.333309 
L 332.028667 98.511007 
L 338.161882 97.084046 
L 344.204901 87.762127 
L 350.513248 91.42586 
L 356.775941 90.462751 
L 362.971089 96.387527 
L 369.180899 78.518996 
L 375.307035 81.025982 
L 381.591974 81.969924 
L 387.807698 79.56496 
L 394.216605 79.04977 
L 400.321052 77.602891 
L 406.41473 77.301694 
L 412.479237 79.182486 
L 418.832479 79.602193 
L 424.87474 73.841737 
L 431.098503 78.01663 
L 437.206844 72.334297 
L 443.336367 78.757312 
L 449.534195 79.269638 
L 455.708867 76.088825 
L 461.948607 73.898209 
L 468.160691 72.855997 
L 474.267818 70.380612 
L 480.505738 69.407901 
L 486.665141 74.465953 
L 492.663973 73.72474 
L 498.766145 77.507362 
L 504.977775 72.370474 
L 511.068622 73.376868 
L 517.462108 74.111664 
L 523.45093 72.943769 
L 529.69072 74.525541 
L 535.809324 74.509213 
L 541.902143 77.638399 
L 547.864573 75.378434 
L 554.100976 76.739156 
L 560.029027 76.665298 
L 565.965471 77.81661 
L 571.915262 83.766865 
L 577.931233 80.403886 
L 584.069604 78.860493 
L 590.109186 78.616687 
L 596.164542 80.731862 
L 602.334309 80.429153 
L 608.383548 75.968391 
L 614.511454 81.286093 
L 620.582179 74.392224 
L 626.676009 79.066844 
L 632.685559 78.634866 
L 638.816195 75.565667 
L 644.901987 78.190093 
L 650.743483 72.278201 
L 656.725732 78.284611 
L 662.38795 78.768401 
L 668.083082 77.710045 
L 673.930089 87.290465 
L 679.672896 82.645168 
L 685.44619 79.454161 
L 691.122817 76.761101 
L 696.724518 80.771615 
L 702.320151 78.361893 
L 707.923369 74.382361 
L 713.612787 82.986915 
L 719.233144 79.519944 
L 724.912046 78.138799 
L 730.504646 75.444631 
L 736.063828 79.989369 
L 741.622504 80.878207 
L 747.163636 76.712291 
" style="fill:none;stroke:#d62728;stroke-linecap:square;stroke-width:1.5;"/>
   </g>
   <g id="line2d_17">
    <path clip-path="url(#p9d4cbfcb6a)" d="M 138.436768 216.685538 
L 144.129271 192.569656 
L 151.593267 127.761252 
L 159.184517 86.83771 
L 166.722429 82.911148 
L 174.262111 77.541807 
L 181.705429 77.294972 
L 189.217051 72.971763 
L 196.624321 75.79604 
L 204.0686 74.924572 
L 210.812907 73.837012 
L 217.04299 73.966394 
L 223.146578 70.981475 
L 229.273675 76.349149 
L 235.006927 74.957368 
L 240.516814 71.479317 
L 245.986711 69.454491 
L 251.7052 70.76288 
L 257.19628 70.662726 
L 262.706926 71.292945 
L 268.206804 71.285793 
L 273.754761 70.768529 
L 279.338514 70.337074 
L 284.795923 71.390403 
L 290.250652 69.623979 
L 295.762158 69.617861 
L 301.21896 70.841278 
L 306.837547 70.215626 
L 312.400672 68.804565 
L 317.953837 67.866044 
L 323.509934 70.106395 
L 328.968557 69.529367 
L 334.443913 68.939145 
L 340.003954 68.944981 
L 345.568293 70.218133 
L 351.114178 69.698747 
L 356.696717 69.608571 
L 362.212217 69.61196 
L 367.671496 68.71534 
L 373.190181 68.969724 
L 378.68293 70.924486 
L 384.234022 71.818369 
L 389.710086 69.328986 
L 395.230035 71.576532 
L 400.750894 69.256577 
L 406.220234 68.651641 
L 411.663184 69.464413 
L 417.205529 68.996448 
L 422.750555 69.0943 
L 428.339818 70.240759 
L 433.788784 69.796372 
L 439.237193 68.190178 
L 444.792988 69.312426 
L 450.345799 69.276326 
L 455.894009 68.940297 
L 461.357637 67.238038 
L 466.859991 68.067931 
L 472.320838 67.873118 
L 477.780421 69.003675 
L 483.226201 72.117172 
L 488.738819 68.679766 
L 494.229192 71.192944 
L 499.670371 68.262361 
L 505.128842 69.214759 
L 510.537917 67.786774 
L 515.97121 68.276777 
L 521.369264 68.197864 
L 526.821718 66.971642 
L 532.251674 68.768684 
L 537.766314 69.850431 
L 543.246575 67.604413 
L 548.783107 70.961511 
L 554.198957 70.262296 
L 559.643069 72.11415 
L 565.064329 67.951537 
L 570.513547 69.639303 
L 575.942492 69.292534 
L 581.392621 73.421842 
L 586.93441 68.937981 
L 592.386561 67.349488 
L 597.936238 66.985863 
L 603.42024 71.678274 
L 608.958036 69.160758 
L 614.472423 67.140069 
L 619.88615 66.665455 
L 625.393257 71.347333 
L 630.826448 72.089032 
L 636.306608 70.60516 
L 641.743389 71.867877 
L 647.190838 73.599443 
L 652.709472 68.275483 
L 658.153382 68.9061 
L 663.623886 68.896674 
L 669.081446 69.008439 
L 674.495223 69.095815 
L 679.976495 68.361434 
L 685.382689 72.97246 
L 690.843789 69.381097 
L 696.27061 68.410338 
L 701.750517 71.643477 
" style="fill:none;stroke:#9467bd;stroke-linecap:square;stroke-width:1.5;"/>
   </g>
   <g id="patch_3">
    <path d="M 108 378 
L 108 51.84 
" style="fill:none;stroke:#000000;stroke-linecap:square;stroke-linejoin:miter;stroke-width:0.8;"/>
   </g>
   <g id="patch_4">
    <path d="M 777.6 378 
L 777.6 51.84 
" style="fill:none;stroke:#000000;stroke-linecap:square;stroke-linejoin:miter;stroke-width:0.8;"/>
   </g>
   <g id="patch_5">
    <path d="M 108 378 
L 777.6 378 
" style="fill:none;stroke:#000000;stroke-linecap:square;stroke-linejoin:miter;stroke-width:0.8;"/>
   </g>
   <g id="patch_6">
    <path d="M 108 51.84 
L 777.6 51.84 
" style="fill:none;stroke:#000000;stroke-linecap:square;stroke-linejoin:miter;stroke-width:0.8;"/>
   </g>
   <g id="text_16">
    <!-- LunarLander-v2 -->
    <g transform="translate(396.03 45.84)scale(0.12 -0.12)">
     <defs>
      <path d="M 628 4666 
L 1259 4666 
L 1259 531 
L 3531 531 
L 3531 0 
L 628 0 
L 628 4666 
z
" id="DejaVuSans-4c" transform="scale(0.015625)"/>
      <path d="M 2906 2969 
L 2906 4863 
L 3481 4863 
L 3481 0 
L 2906 0 
L 2906 525 
Q 2725 213 2448 61 
Q 2172 -91 1784 -91 
Q 1150 -91 751 415 
Q 353 922 353 1747 
Q 353 2572 751 3078 
Q 1150 3584 1784 3584 
Q 2172 3584 2448 3432 
Q 2725 3281 2906 2969 
z
M 947 1747 
Q 947 1113 1208 752 
Q 1469 391 1925 391 
Q 2381 391 2643 752 
Q 2906 1113 2906 1747 
Q 2906 2381 2643 2742 
Q 2381 3103 1925 3103 
Q 1469 3103 1208 2742 
Q 947 2381 947 1747 
z
" id="DejaVuSans-64" transform="scale(0.015625)"/>
      <path d="M 313 2009 
L 1997 2009 
L 1997 1497 
L 313 1497 
L 313 2009 
z
" id="DejaVuSans-2d" transform="scale(0.015625)"/>
      <path d="M 191 3500 
L 800 3500 
L 1894 563 
L 2988 3500 
L 3597 3500 
L 2284 0 
L 1503 0 
L 191 3500 
z
" id="DejaVuSans-76" transform="scale(0.015625)"/>
     </defs>
     <use xlink:href="#DejaVuSans-4c"/>
     <use x="53.962891" xlink:href="#DejaVuSans-75"/>
     <use x="117.341797" xlink:href="#DejaVuSans-6e"/>
     <use x="180.720703" xlink:href="#DejaVuSans-61"/>
     <use x="242" xlink:href="#DejaVuSans-72"/>
     <use x="283.113281" xlink:href="#DejaVuSans-4c"/>
     <use x="338.826172" xlink:href="#DejaVuSans-61"/>
     <use x="400.105469" xlink:href="#DejaVuSans-6e"/>
     <use x="463.484375" xlink:href="#DejaVuSans-64"/>
     <use x="526.960938" xlink:href="#DejaVuSans-65"/>
     <use x="588.484375" xlink:href="#DejaVuSans-72"/>
     <use x="623.222656" xlink:href="#DejaVuSans-2d"/>
     <use x="656.681641" xlink:href="#DejaVuSans-76"/>
     <use x="715.861328" xlink:href="#DejaVuSans-32"/>
    </g>
   </g>
  </g>
 </g>
 <defs>
  <clipPath id="p9d4cbfcb6a">
   <rect height="326.16" width="669.6" x="108" y="51.84"/>
  </clipPath>
 </defs>
</svg>
